<svg xmlns="http://www.w3.org/2000/svg" viewBox="0 0 600 600"><defs><linearGradient id="bg" x2="0" y2="1"><stop stop-color="#17140D"/><stop offset=".48" stop-color="#090A0D"/><stop offset="1" stop-color="#040509"/></linearGradient><linearGradient id="shine"><stop stop-color="#F4EEDC"/><stop offset=".5" stop-color="#F2D98D"/><stop offset="1" stop-color="#F4EEDC"/></linearGradient><filter id="m"><feDropShadow dx="-16" dy="8" stdDeviation="7" flood-opacity=".55"/></filter><filter id="snakeGlow"><feDropShadow stdDeviation="5" flood-color="#F4EEDC" flood-opacity="1"/></filter></defs><style>.brand{font-family:Arial,sans-serif;font-weight:900;letter-spacing:4px}.label{font-family:Arial,sans-serif;font-weight:700;letter-spacing:2px}.mono{font-family:monospace}.gold{fill:#D8B565}.muted{fill:#817967}.white{fill:#F4EEDC}</style><g transform="scale(0.75)"><rect width="800" height="800" fill="url(#bg)"/><g fill="currentColor" color="#F2D98D" filter="url(#m)" opacity=".66"><animate attributeName="color" values="#F2D98D;#F2D98D;#F4EEDC;#F2D98D;#F2D98D" keyTimes="0;.46;.53;.6;1" dur="8s" repeatCount="indefinite"/><g transform="matrix(.92 0 0 .92 31.84 21.28)"><g transform="translate(400 266)"><g><animateTransform attributeName="transform" type="scale" values=".9;.9;.9;1.08;.96;1;.9;.9" keyTimes="0;.2;.38;.42;.58;.62;.8;1" dur="8s" repeatCount="indefinite"/><g transform="translate(-400 -266)"><path d="M276 142h16v16h-16zM292 142h16v16h-16zM308 142h16v16h-16zM324 142h16v16h-16zM340 142h16v16h-16zM276 158h16v16h-16zM292 158h16v16h-16zM308 158h16v16h-16zM324 158h16v16h-16zM340 158h16v16h-16zM276 174h16v16h-16zM292 174h16v16h-16zM308 174h16v16h-16zM324 174h16v16h-16zM340 174h16v16h-16zM276 190h16v16h-16zM292 190h16v16h-16zM308 190h16v16h-16zM324 190h16v16h-16zM340 190h16v16h-16zM276 206h16v16h-16zM292 206h16v16h-16zM308 206h16v16h-16zM324 206h16v16h-16zM340 206h16v16h-16z"><animate attributeName="d" values="M105 66h4v4h-4zM210 65h13v13h-13zM330 101h8v8h-8zM476 80h5v5h-5zM673 81h5v5h-5zM131 275h9v9h-9zM262 244h9v9h-9zM415 214h8v8h-8zM548 266h12v12h-12zM670 234h12v12h-12zM123 408h8v8h-8zM276 345h7v7h-7zM376 351h9v9h-9zM503 403h5v5h-5zM641 378h5v5h-5zM111 548h5v5h-5zM268 477h13v13h-13zM365 539h9v9h-9zM513 530h8v8h-8zM653 504h12v12h-12zM107 628h9v9h-9zM276 648h14v14h-14zM344 637h10v10h-10zM523 613h5v5h-5zM680 689h4v4h-4z;M101 125h8v8h-8zM276 126h10v10h-10zM345 90h4v4h-4zM479 111h7v7h-7zM653 110h7v7h-7zM75 196h14v14h-14zM224 227h14v14h-14zM351 257h4v4h-4zM498 205h11v11h-11zM656 237h11v11h-11zM83 343h4v4h-4zM210 406h5v5h-5zM390 400h14v14h-14zM543 348h7v7h-7zM685 373h7v7h-7zM95 483h7v7h-7zM218 554h10v10h-10zM401 492h14v14h-14zM533 501h4v4h-4zM673 527h11v11h-11zM99 683h14v14h-14zM210 663h9v9h-9zM331 674h13v13h-13zM523 698h7v7h-7zM646 622h8v8h-8z;M276 142h16v16h-16zM292 142h16v16h-16zM308 142h16v16h-16zM324 142h16v16h-16zM340 142h16v16h-16zM276 158h16v16h-16zM292 158h16v16h-16zM308 158h16v16h-16zM324 158h16v16h-16zM340 158h16v16h-16zM276 174h16v16h-16zM292 174h16v16h-16zM308 174h16v16h-16zM324 174h16v16h-16zM340 174h16v16h-16zM276 190h16v16h-16zM292 190h16v16h-16zM308 190h16v16h-16zM324 190h16v16h-16zM340 190h16v16h-16zM276 206h16v16h-16zM292 206h16v16h-16zM308 206h16v16h-16zM324 206h16v16h-16zM340 206h16v16h-16z;M276 142h16v16h-16zM292 142h16v16h-16zM308 142h16v16h-16zM324 142h16v16h-16zM340 142h16v16h-16zM276 158h16v16h-16zM292 158h16v16h-16zM308 158h16v16h-16zM324 158h16v16h-16zM340 158h16v16h-16zM276 174h16v16h-16zM292 174h16v16h-16zM308 174h16v16h-16zM324 174h16v16h-16zM340 174h16v16h-16zM276 190h16v16h-16zM292 190h16v16h-16zM308 190h16v16h-16zM324 190h16v16h-16zM340 190h16v16h-16zM276 206h16v16h-16zM292 206h16v16h-16zM308 206h16v16h-16zM324 206h16v16h-16zM340 206h16v16h-16z;M276 142h16v16h-16zM292 142h16v16h-16zM308 142h16v16h-16zM324 142h16v16h-16zM340 142h16v16h-16zM276 158h16v16h-16zM292 158h16v16h-16zM308 158h16v16h-16zM324 158h16v16h-16zM340 158h16v16h-16zM276 174h16v16h-16zM292 174h16v16h-16zM308 174h16v16h-16zM324 174h16v16h-16zM340 174h16v16h-16zM276 190h16v16h-16zM292 190h16v16h-16zM308 190h16v16h-16zM324 190h16v16h-16zM340 190h16v16h-16zM276 206h16v16h-16zM292 206h16v16h-16zM308 206h16v16h-16zM324 206h16v16h-16zM340 206h16v16h-16z;M105 66h4v4h-4zM210 65h13v13h-13zM330 101h8v8h-8zM476 80h5v5h-5zM673 81h5v5h-5zM131 275h9v9h-9zM262 244h9v9h-9zM415 214h8v8h-8zM548 266h12v12h-12zM670 234h12v12h-12zM123 408h8v8h-8zM276 345h7v7h-7zM376 351h9v9h-9zM503 403h5v5h-5zM641 378h5v5h-5zM111 548h5v5h-5zM268 477h13v13h-13zM365 539h9v9h-9zM513 530h8v8h-8zM653 504h12v12h-12zM107 628h9v9h-9zM276 648h14v14h-14zM344 637h10v10h-10zM523 613h5v5h-5zM680 689h4v4h-4z" keyTimes="0;.18;.42;.48;.72;1" dur="8s" repeatCount="indefinite"/></path><path d="M444 142h16v16h-16zM460 142h16v16h-16zM476 142h16v16h-16zM492 142h16v16h-16zM508 142h16v16h-16zM444 158h16v16h-16zM460 158h16v16h-16zM476 158h16v16h-16zM492 158h16v16h-16zM508 158h16v16h-16zM444 174h16v16h-16zM460 174h16v16h-16zM476 174h16v16h-16zM492 174h16v16h-16zM508 174h16v16h-16zM444 190h16v16h-16zM460 190h16v16h-16zM476 190h16v16h-16zM492 190h16v16h-16zM508 190h16v16h-16zM444 206h16v16h-16zM460 206h16v16h-16zM476 206h16v16h-16zM492 206h16v16h-16zM508 206h16v16h-16z"><animate attributeName="d" values="M74 62h4v4h-4zM194 79h7v7h-7zM363 73h11v11h-11zM521 69h14v14h-14zM689 134h9v9h-9zM130 280h8v8h-8zM279 237h11v11h-11zM409 252h10v10h-10zM533 236h8v8h-8zM670 219h4v4h-4zM123 395h12v12h-12zM193 406h7v7h-7zM419 352h7v7h-7zM517 411h7v7h-7zM685 375h14v14h-14zM52 548h14v14h-14zM232 557h10v10h-10zM357 556h12v12h-12zM512 500h10v10h-10zM669 546h5v5h-5zM104 631h4v4h-4zM248 664h4v4h-4zM332 647h8v8h-8zM513 658h12v12h-12zM668 629h8v8h-8z;M132 129h8v8h-8zM201 112h5v5h-5zM403 118h12v12h-12zM525 122h9v9h-9zM637 57h14v14h-14zM76 191h4v4h-4zM207 234h12v12h-12zM357 219h13v13h-13zM513 235h4v4h-4zM656 252h8v8h-8zM83 356h11v11h-11zM202 345h5v5h-5zM347 399h5v5h-5zM529 340h5v5h-5zM641 376h9v9h-9zM63 483h9v9h-9zM254 474h13v13h-13zM409 475h11v11h-11zM534 531h13v13h-13zM657 485h7v7h-7zM102 680h8v8h-8zM238 647h8v8h-8zM343 664h4v4h-4zM533 653h11v11h-11zM658 682h4v4h-4z;M444 142h16v16h-16zM460 142h16v16h-16zM476 142h16v16h-16zM492 142h16v16h-16zM508 142h16v16h-16zM444 158h16v16h-16zM460 158h16v16h-16zM476 158h16v16h-16zM492 158h16v16h-16zM508 158h16v16h-16zM444 174h16v16h-16zM460 174h16v16h-16zM476 174h16v16h-16zM492 174h16v16h-16zM508 174h16v16h-16zM444 190h16v16h-16zM460 190h16v16h-16zM476 190h16v16h-16zM492 190h16v16h-16zM508 190h16v16h-16zM444 206h16v16h-16zM460 206h16v16h-16zM476 206h16v16h-16zM492 206h16v16h-16zM508 206h16v16h-16z;M444 142h16v16h-16zM460 142h16v16h-16zM476 142h16v16h-16zM492 142h16v16h-16zM508 142h16v16h-16zM444 158h16v16h-16zM460 158h16v16h-16zM476 158h16v16h-16zM492 158h16v16h-16zM508 158h16v16h-16zM444 174h16v16h-16zM460 174h16v16h-16zM476 174h16v16h-16zM492 174h16v16h-16zM508 174h16v16h-16zM444 190h16v16h-16zM460 190h16v16h-16zM476 190h16v16h-16zM492 190h16v16h-16zM508 190h16v16h-16zM444 206h16v16h-16zM460 206h16v16h-16zM476 206h16v16h-16zM492 206h16v16h-16zM508 206h16v16h-16z;M444 142h16v16h-16zM460 142h16v16h-16zM476 142h16v16h-16zM492 142h16v16h-16zM508 142h16v16h-16zM444 158h16v16h-16zM460 158h16v16h-16zM476 158h16v16h-16zM492 158h16v16h-16zM508 158h16v16h-16zM444 174h16v16h-16zM460 174h16v16h-16zM476 174h16v16h-16zM492 174h16v16h-16zM508 174h16v16h-16zM444 190h16v16h-16zM460 190h16v16h-16zM476 190h16v16h-16zM492 190h16v16h-16zM508 190h16v16h-16zM444 206h16v16h-16zM460 206h16v16h-16zM476 206h16v16h-16zM492 206h16v16h-16zM508 206h16v16h-16z;M74 62h4v4h-4zM194 79h7v7h-7zM363 73h11v11h-11zM521 69h14v14h-14zM689 134h9v9h-9zM130 280h8v8h-8zM279 237h11v11h-11zM409 252h10v10h-10zM533 236h8v8h-8zM670 219h4v4h-4zM123 395h12v12h-12zM193 406h7v7h-7zM419 352h7v7h-7zM517 411h7v7h-7zM685 375h14v14h-14zM52 548h14v14h-14zM232 557h10v10h-10zM357 556h12v12h-12zM512 500h10v10h-10zM669 546h5v5h-5zM104 631h4v4h-4zM248 664h4v4h-4zM332 647h8v8h-8zM513 658h12v12h-12zM668 629h8v8h-8z" keyTimes="0;.2;.44;.5;.74;1" dur="8s" repeatCount="indefinite"/></path><path d="M360 226h16v16h-16zM376 226h16v16h-16zM392 226h16v16h-16zM408 226h16v16h-16zM424 226h16v16h-16zM360 242h16v16h-16zM376 242h16v16h-16zM392 242h16v16h-16zM408 242h16v16h-16zM424 242h16v16h-16zM360 258h16v16h-16zM376 258h16v16h-16zM392 258h16v16h-16zM408 258h16v16h-16zM424 258h16v16h-16zM360 274h16v16h-16zM376 274h16v16h-16zM392 274h16v16h-16zM408 274h16v16h-16zM424 274h16v16h-16zM360 290h16v16h-16zM376 290h16v16h-16zM392 290h16v16h-16zM408 290h16v16h-16zM424 290h16v16h-16z"><animate attributeName="d" values="M137 82h4v4h-4zM238 121h11v11h-11zM383 124h14v14h-14zM509 98h7v7h-7zM639 120h10v10h-10zM77 223h14v14h-14zM220 261h5v5h-5zM399 215h11v11h-11zM510 250h11v11h-11zM652 255h7v7h-7zM68 368h14v14h-14zM239 392h13v13h-13zM347 414h12v12h-12zM492 368h11v11h-11zM645 352h12v12h-12zM51 482h8v8h-8zM273 518h10v10h-10zM373 476h4v4h-4zM483 528h12v12h-12zM677 559h6v6h-6zM87 648h10v10h-10zM256 699h4v4h-4zM364 622h8v8h-8zM497 678h9v9h-9zM665 666h14v14h-14z;M69 109h8v8h-8zM248 70h12v12h-12zM383 67h9v9h-9zM537 93h5v5h-5zM687 71h13v13h-13zM129 248h9v9h-9zM266 210h7v7h-7zM367 256h12v12h-12zM536 221h12v12h-12zM674 216h5v5h-5zM138 383h9v9h-9zM247 359h10v10h-10zM419 337h11v11h-11zM554 383h12v12h-12zM681 399h11v11h-11zM64 549h4v4h-4zM213 513h13v13h-13zM393 555h8v8h-8zM472 503h11v11h-11zM649 472h6v6h-6zM119 663h13v13h-13zM230 612h8v8h-8zM402 689h4v4h-4zM549 633h14v14h-14zM661 645h9v9h-9z;M360 226h16v16h-16zM376 226h16v16h-16zM392 226h16v16h-16zM408 226h16v16h-16zM424 226h16v16h-16zM360 242h16v16h-16zM376 242h16v16h-16zM392 242h16v16h-16zM408 242h16v16h-16zM424 242h16v16h-16zM360 258h16v16h-16zM376 258h16v16h-16zM392 258h16v16h-16zM408 258h16v16h-16zM424 258h16v16h-16zM360 274h16v16h-16zM376 274h16v16h-16zM392 274h16v16h-16zM408 274h16v16h-16zM424 274h16v16h-16zM360 290h16v16h-16zM376 290h16v16h-16zM392 290h16v16h-16zM408 290h16v16h-16zM424 290h16v16h-16z;M360 226h16v16h-16zM376 226h16v16h-16zM392 226h16v16h-16zM408 226h16v16h-16zM424 226h16v16h-16zM360 242h16v16h-16zM376 242h16v16h-16zM392 242h16v16h-16zM408 242h16v16h-16zM424 242h16v16h-16zM360 258h16v16h-16zM376 258h16v16h-16zM392 258h16v16h-16zM408 258h16v16h-16zM424 258h16v16h-16zM360 274h16v16h-16zM376 274h16v16h-16zM392 274h16v16h-16zM408 274h16v16h-16zM424 274h16v16h-16zM360 290h16v16h-16zM376 290h16v16h-16zM392 290h16v16h-16zM408 290h16v16h-16zM424 290h16v16h-16z;M360 226h16v16h-16zM376 226h16v16h-16zM392 226h16v16h-16zM408 226h16v16h-16zM424 226h16v16h-16zM360 242h16v16h-16zM376 242h16v16h-16zM392 242h16v16h-16zM408 242h16v16h-16zM424 242h16v16h-16zM360 258h16v16h-16zM376 258h16v16h-16zM392 258h16v16h-16zM408 258h16v16h-16zM424 258h16v16h-16zM360 274h16v16h-16zM376 274h16v16h-16zM392 274h16v16h-16zM408 274h16v16h-16zM424 274h16v16h-16zM360 290h16v16h-16zM376 290h16v16h-16zM392 290h16v16h-16zM408 290h16v16h-16zM424 290h16v16h-16z;M137 82h4v4h-4zM238 121h11v11h-11zM383 124h14v14h-14zM509 98h7v7h-7zM639 120h10v10h-10zM77 223h14v14h-14zM220 261h5v5h-5zM399 215h11v11h-11zM510 250h11v11h-11zM652 255h7v7h-7zM68 368h14v14h-14zM239 392h13v13h-13zM347 414h12v12h-12zM492 368h11v11h-11zM645 352h12v12h-12zM51 482h8v8h-8zM273 518h10v10h-10zM373 476h4v4h-4zM483 528h12v12h-12zM677 559h6v6h-6zM87 648h10v10h-10zM256 699h4v4h-4zM364 622h8v8h-8zM497 678h9v9h-9zM665 666h14v14h-14z" keyTimes="0;.2;.44;.5;.74;1" dur="8s" repeatCount="indefinite"/></path><path d="M276 310h16v16h-16zM292 310h16v16h-16zM308 310h16v16h-16zM324 310h16v16h-16zM340 310h16v16h-16zM276 326h16v16h-16zM292 326h16v16h-16zM308 326h16v16h-16zM324 326h16v16h-16zM340 326h16v16h-16zM276 342h16v16h-16zM292 342h16v16h-16zM308 342h16v16h-16zM324 342h16v16h-16zM340 342h16v16h-16zM276 358h16v16h-16zM292 358h16v16h-16zM308 358h16v16h-16zM324 358h16v16h-16zM340 358h16v16h-16zM276 374h16v16h-16zM292 374h16v16h-16zM308 374h16v16h-16zM324 374h16v16h-16zM340 374h16v16h-16z"><animate attributeName="d" values="M80 74h4v4h-4zM227 93h12v12h-12zM414 52h9v9h-9zM543 71h5v5h-5zM677 114h12v12h-12zM116 227h7v7h-7zM270 273h10v10h-10zM377 222h9v9h-9zM512 236h13v13h-13zM667 227h9v9h-9zM63 353h5v5h-5zM264 402h9v9h-9zM382 361h12v12h-12zM520 358h7v7h-7zM626 385h12v12h-12zM64 493h11v11h-11zM196 510h5v5h-5zM402 488h9v9h-9zM492 486h14v14h-14zM668 557h5v5h-5zM99 634h13v13h-13zM236 641h10v10h-10zM412 634h5v5h-5zM523 677h4v4h-4zM692 698h9v9h-9z;M126 117h8v8h-8zM259 98h11v11h-11zM352 139h14v14h-14zM503 120h7v7h-7zM649 77h11v11h-11zM90 244h5v5h-5zM216 198h13v13h-13zM389 249h14v14h-14zM534 235h10v10h-10zM659 244h14v14h-14zM52 398h7v7h-7zM222 349h14v14h-14zM384 390h11v11h-11zM526 393h5v5h-5zM700 366h11v11h-11zM51 538h12v12h-12zM199 521h7v7h-7zM364 543h14v14h-14zM554 545h9v9h-9zM658 474h7v7h-7zM107 677h10v10h-10zM250 670h13v13h-13zM354 677h7v7h-7zM523 634h8v8h-8zM634 613h14v14h-14z;M276 310h16v16h-16zM292 310h16v16h-16zM308 310h16v16h-16zM324 310h16v16h-16zM340 310h16v16h-16zM276 326h16v16h-16zM292 326h16v16h-16zM308 326h16v16h-16zM324 326h16v16h-16zM340 326h16v16h-16zM276 342h16v16h-16zM292 342h16v16h-16zM308 342h16v16h-16zM324 342h16v16h-16zM340 342h16v16h-16zM276 358h16v16h-16zM292 358h16v16h-16zM308 358h16v16h-16zM324 358h16v16h-16zM340 358h16v16h-16zM276 374h16v16h-16zM292 374h16v16h-16zM308 374h16v16h-16zM324 374h16v16h-16zM340 374h16v16h-16z;M276 310h16v16h-16zM292 310h16v16h-16zM308 310h16v16h-16zM324 310h16v16h-16zM340 310h16v16h-16zM276 326h16v16h-16zM292 326h16v16h-16zM308 326h16v16h-16zM324 326h16v16h-16zM340 326h16v16h-16zM276 342h16v16h-16zM292 342h16v16h-16zM308 342h16v16h-16zM324 342h16v16h-16zM340 342h16v16h-16zM276 358h16v16h-16zM292 358h16v16h-16zM308 358h16v16h-16zM324 358h16v16h-16zM340 358h16v16h-16zM276 374h16v16h-16zM292 374h16v16h-16zM308 374h16v16h-16zM324 374h16v16h-16zM340 374h16v16h-16z;M276 310h16v16h-16zM292 310h16v16h-16zM308 310h16v16h-16zM324 310h16v16h-16zM340 310h16v16h-16zM276 326h16v16h-16zM292 326h16v16h-16zM308 326h16v16h-16zM324 326h16v16h-16zM340 326h16v16h-16zM276 342h16v16h-16zM292 342h16v16h-16zM308 342h16v16h-16zM324 342h16v16h-16zM340 342h16v16h-16zM276 358h16v16h-16zM292 358h16v16h-16zM308 358h16v16h-16zM324 358h16v16h-16zM340 358h16v16h-16zM276 374h16v16h-16zM292 374h16v16h-16zM308 374h16v16h-16zM324 374h16v16h-16zM340 374h16v16h-16z;M80 74h4v4h-4zM227 93h12v12h-12zM414 52h9v9h-9zM543 71h5v5h-5zM677 114h12v12h-12zM116 227h7v7h-7zM270 273h10v10h-10zM377 222h9v9h-9zM512 236h13v13h-13zM667 227h9v9h-9zM63 353h5v5h-5zM264 402h9v9h-9zM382 361h12v12h-12zM520 358h7v7h-7zM626 385h12v12h-12zM64 493h11v11h-11zM196 510h5v5h-5zM402 488h9v9h-9zM492 486h14v14h-14zM668 557h5v5h-5zM99 634h13v13h-13zM236 641h10v10h-10zM412 634h5v5h-5zM523 677h4v4h-4zM692 698h9v9h-9z" keyTimes="0;.22;.46;.52;.76;1" dur="8s" repeatCount="indefinite"/></path><path d="M444 310h16v16h-16zM460 310h16v16h-16zM476 310h16v16h-16zM492 310h16v16h-16zM508 310h16v16h-16zM444 326h16v16h-16zM460 326h16v16h-16zM476 326h16v16h-16zM492 326h16v16h-16zM508 326h16v16h-16zM444 342h16v16h-16zM460 342h16v16h-16zM476 342h16v16h-16zM492 342h16v16h-16zM508 342h16v16h-16zM444 358h16v16h-16zM460 358h16v16h-16zM476 358h16v16h-16zM492 358h16v16h-16zM508 358h16v16h-16zM444 374h16v16h-16zM460 374h16v16h-16zM476 374h16v16h-16zM492 374h16v16h-16zM508 374h16v16h-16z"><animate attributeName="d" values="M140 70h4v4h-4zM257 107h6v6h-6zM373 115h12v12h-12zM472 106h14v14h-14zM670 100h9v9h-9zM50 270h14v14h-14zM241 219h12v12h-12zM407 193h5v5h-5zM532 274h12v12h-12zM626 216h9v9h-9zM84 417h9v9h-9zM191 418h12v12h-12zM387 336h8v8h-8zM472 386h12v12h-12zM682 405h4v4h-4zM97 527h14v14h-14zM242 555h7v7h-7zM383 537h8v8h-8zM479 537h4v4h-4zM698 552h7v7h-7zM112 689h6v6h-6zM240 651h4v4h-4zM403 624h4v4h-4zM526 688h8v8h-8zM637 636h12v12h-12z;M66 121h8v8h-8zM229 84h6v6h-6zM393 76h11v11h-11zM483 85h9v9h-9zM656 91h14v14h-14zM65 201h9v9h-9zM245 252h11v11h-11zM359 278h7v7h-7zM514 197h11v11h-11zM700 255h14v14h-14zM122 334h14v14h-14zM204 333h11v11h-11zM379 415h4v4h-4zM483 365h11v11h-11zM644 346h8v8h-8zM109 504h9v9h-9zM244 476h5v5h-5zM383 494h4v4h-4zM476 494h8v8h-8zM628 479h5v5h-5zM94 622h6v6h-6zM246 660h8v8h-8zM363 687h8v8h-8zM520 623h4v4h-4zM689 675h11v11h-11z;M444 310h16v16h-16zM460 310h16v16h-16zM476 310h16v16h-16zM492 310h16v16h-16zM508 310h16v16h-16zM444 326h16v16h-16zM460 326h16v16h-16zM476 326h16v16h-16zM492 326h16v16h-16zM508 326h16v16h-16zM444 342h16v16h-16zM460 342h16v16h-16zM476 342h16v16h-16zM492 342h16v16h-16zM508 342h16v16h-16zM444 358h16v16h-16zM460 358h16v16h-16zM476 358h16v16h-16zM492 358h16v16h-16zM508 358h16v16h-16zM444 374h16v16h-16zM460 374h16v16h-16zM476 374h16v16h-16zM492 374h16v16h-16zM508 374h16v16h-16z;M444 310h16v16h-16zM460 310h16v16h-16zM476 310h16v16h-16zM492 310h16v16h-16zM508 310h16v16h-16zM444 326h16v16h-16zM460 326h16v16h-16zM476 326h16v16h-16zM492 326h16v16h-16zM508 326h16v16h-16zM444 342h16v16h-16zM460 342h16v16h-16zM476 342h16v16h-16zM492 342h16v16h-16zM508 342h16v16h-16zM444 358h16v16h-16zM460 358h16v16h-16zM476 358h16v16h-16zM492 358h16v16h-16zM508 358h16v16h-16zM444 374h16v16h-16zM460 374h16v16h-16zM476 374h16v16h-16zM492 374h16v16h-16zM508 374h16v16h-16z;M444 310h16v16h-16zM460 310h16v16h-16zM476 310h16v16h-16zM492 310h16v16h-16zM508 310h16v16h-16zM444 326h16v16h-16zM460 326h16v16h-16zM476 326h16v16h-16zM492 326h16v16h-16zM508 326h16v16h-16zM444 342h16v16h-16zM460 342h16v16h-16zM476 342h16v16h-16zM492 342h16v16h-16zM508 342h16v16h-16zM444 358h16v16h-16zM460 358h16v16h-16zM476 358h16v16h-16zM492 358h16v16h-16zM508 358h16v16h-16zM444 374h16v16h-16zM460 374h16v16h-16zM476 374h16v16h-16zM492 374h16v16h-16zM508 374h16v16h-16z;M140 70h4v4h-4zM257 107h6v6h-6zM373 115h12v12h-12zM472 106h14v14h-14zM670 100h9v9h-9zM50 270h14v14h-14zM241 219h12v12h-12zM407 193h5v5h-5zM532 274h12v12h-12zM626 216h9v9h-9zM84 417h9v9h-9zM191 418h12v12h-12zM387 336h8v8h-8zM472 386h12v12h-12zM682 405h4v4h-4zM97 527h14v14h-14zM242 555h7v7h-7zM383 537h8v8h-8zM479 537h4v4h-4zM698 552h7v7h-7zM112 689h6v6h-6zM240 651h4v4h-4zM403 624h4v4h-4zM526 688h8v8h-8zM637 636h12v12h-12z" keyTimes="0;.18;.42;.48;.72;1" dur="8s" repeatCount="indefinite"/></path></g></g></g></g></g><g fill="none" stroke="#F2D98D"><rect x="18" y="18" width="764" height="764" opacity=".25"/><path d="M29 29H771V771H29Z"/><path d="M42 112H758M42 386H758M42 466H758M42 580H758" opacity=".35" stroke-dasharray="6 4"><animate attributeName="stroke-dashoffset" values="0;-20" dur="4s" repeatCount="indefinite"/></path></g><g fill="#F2D98D" filter="url(#snakeGlow)"><circle r="4" opacity=".72"><animateTransform attributeName="transform" type="translate" values="22 778;778 778;778 22;22 22;22 778;778 778;22 778" keyTimes="0;.16;.33;.5;.66;.83;1" dur="3.2s" repeatCount="indefinite"/><animate attributeName="opacity" values=".45;.45;1;.45;.45" keyTimes="0;.44;.5;.56;1" dur="3.2s" repeatCount="indefinite"/><animate attributeName="r" values="4;4;14;4;4" keyTimes="0;.44;.5;.56;1" dur="3.2s" repeatCount="indefinite"/></circle><circle r="4" opacity=".72"><animateTransform attributeName="transform" type="translate" values="778 22;778 778;778 22;22 22;22 778;22 22;778 22" keyTimes="0;.16;.33;.5;.66;.83;1" dur="3.2s" repeatCount="indefinite"/><animate attributeName="opacity" values=".45;.45;1;.45;.45" keyTimes="0;.44;.5;.56;1" dur="3.2s" repeatCount="indefinite"/><animate attributeName="r" values="4;4;14;4;4" keyTimes="0;.44;.5;.56;1" dur="3.2s" repeatCount="indefinite"/></circle><circle r="4" opacity=".72"><animateTransform attributeName="transform" type="translate" values="778 778;22 778;22 778;22 22;778 22;778 778;778 778" keyTimes="0;.16;.33;.5;.66;.83;1" dur="3.2s" repeatCount="indefinite"/><animate attributeName="opacity" values=".45;.45;1;.45;.45" keyTimes="0;.44;.5;.56;1" dur="3.2s" repeatCount="indefinite"/><animate attributeName="r" values="4;4;14;4;4" keyTimes="0;.44;.5;.56;1" dur="3.2s" repeatCount="indefinite"/></circle></g><g><text class="brand" x="50" y="68" font-size="34" fill="url(#shine)">BANMAOBOX<animate attributeName="fill-opacity" values=".55;1;.55" dur="5s" repeatCount="indefinite"/></text><text class="label muted" x="50" y="96" font-size="13">SEALED TREASURY  /  SEALED</text><text class="label muted" x="750" y="48" text-anchor="end" font-size="11">NFT TOKEN ID</text><text class="mono" x="750" y="84" text-anchor="end" fill="#F2D98D" font-size="34" font-weight="700">#3</text></g><g transform="translate(48 146)"><text class="label gold" font-size="19">ASSET PORTFOLIO / 3</text><text class="label muted" x="704" text-anchor="end" font-size="12">AVAILABLE AMOUNT</text><g><text class="mono white" y="43" font-size="24" font-weight="700">BANMAO</text><text class="mono" x="704" y="43" text-anchor="end" fill="#F2D98D" font-size="22" font-weight="700">125,000,000</text><path d="M0 51H704" stroke="#F2D98D" stroke-opacity=".1"/></g><g><text class="mono white" y="83" font-size="24" font-weight="700">USDT</text><text class="mono" x="704" y="83" text-anchor="end" fill="#F2D98D" font-size="22" font-weight="700">2,500.75</text><path d="M0 91H704" stroke="#F2D98D" stroke-opacity=".1"/></g><g><text class="mono white" y="123" font-size="24" font-weight="700">WBTC</text><text class="mono" x="704" y="123" text-anchor="end" fill="#F2D98D" font-size="22" font-weight="700">0.12</text><path d="M0 131H704" stroke="#F2D98D" stroke-opacity=".1"/></g></g><g transform="translate(48 414)"><text class="label gold" font-size="15">UNLOCK TIME</text><text class="mono white" x="704" text-anchor="end" font-size="20" font-weight="700">2026-11-25 09:51 UTC</text></g><g transform="translate(48 492)"><text class="label gold" font-size="14">MINTED BY</text><text class="mono white" y="27" font-size="18" font-weight="700">0x33ee0042Deca5623cC440AC047685cC54dF59f14</text><text class="label muted" y="60" font-size="12">CREATED</text><text class="mono white" x="92" y="60" font-size="16">2026-08-27 09:51 UTC</text><text class="label muted" x="472" y="60" font-size="12">TIME SEAL</text><text class="mono" x="704" y="60" text-anchor="end" fill="#F2D98D" font-size="17" font-weight="700">90 DAYS</text></g><text class="label gold" x="48" y="608" font-size="19">ASSET LEDGER</text><g><rect x="500" y="586" width="236" height="30" rx="7" fill="#D8B565" fill-opacity=".1" stroke="#D8B565"><animate attributeName="fill-opacity" values=".08;.22;.08" dur="2s" repeatCount="indefinite"/></rect><text class="mono gold" x="684" y="607" text-anchor="end" font-size="16" font-weight="700">banmao.fun/defi/box</text><path d="M696 608l12-12m-8 0h8v8" fill="none" stroke="#D8B565" stroke-width="2"/></g><text class="label muted" x="48" y="632" font-size="12">TOKEN CONTRACT</text><text class="label muted" x="560" y="632" text-anchor="end" font-size="12">AMOUNT</text><text class="label muted" x="752" y="632" text-anchor="end" font-size="12">SYMBOL / DECIMALS</text><g><text class="mono white" x="48" y="654" font-size="12" font-weight="700">0x16d91d1615fC55b76d5F92365BD60C069b46eF78</text><text class="mono white" x="560" y="654" text-anchor="end" font-size="14" font-weight="700">125,000,000</text><text class="mono white" x="752" y="654" text-anchor="end" font-size="13">BANMAO / d18</text><path d="M48 662H752" stroke="#D8B565" stroke-opacity=".12"/></g><g><text class="mono white" x="48" y="679" font-size="12" font-weight="700">0x1111111111111111111111111111111111111111</text><text class="mono white" x="560" y="679" text-anchor="end" font-size="14" font-weight="700">2,500.75</text><text class="mono white" x="752" y="679" text-anchor="end" font-size="13">USDT / d6</text><path d="M48 687H752" stroke="#D8B565" stroke-opacity=".12"/></g><g><text class="mono white" x="48" y="704" font-size="12" font-weight="700">0x2222222222222222222222222222222222222222</text><text class="mono white" x="560" y="704" text-anchor="end" font-size="14" font-weight="700">0.12</text><text class="mono white" x="752" y="704" text-anchor="end" font-size="13">WBTC / d8</text><path d="M48 712H752" stroke="#D8B565" stroke-opacity=".12"/></g></g></svg>